# xmcd
#
# Track frame offsets: 
#        150
#        17599
#        35077
#        51166
#        66943
#        83462
#        96023
#        110117
#        123881
#        139033
#        164897
#
# Disc length: 2492 seconds
#
# Revision: 0
# Processed by: cddbd v1.4PL0 Copyright (c) Steve Scherf et al.
# Submitted via: ExactAudioCopy v0.90b4
#
DISCID=9409ba0b
DTITLE=Various Artist - Groovetone Sampler 2000
DYEAR=2000
DGENRE=Country
TTITLE0=Mechanicsville - The Walt Wilkins Band
TTITLE1=Everybody's Gotta Walk - Kevin Welch
TTITLE2=Penny Black
TTITLE3=I Know How It Feels - Larry Cordle and Lonesome Standard Time
TTITLE4=Devil's In The Details - Carter Wood
TTITLE5=The Weightlifter - Federal Weights and Measures
TTITLE6=Scared of That Child - Mike Henderson and the Bluebloods
TTITLE7=Last Hard Man In Elmore County - Davis Raines
TTITLE8=Breaking Point - Danny Flowers
TTITLE9=Six Months No Sun - Kieran Kane
TTITLE10=Data Track
EXTD=
EXTT0=
EXTT1=
EXTT2=
EXTT3=
EXTT4=
EXTT5=
EXTT6=
EXTT7=
EXTT8=
EXTT9=
EXTT10=
PLAYORDER=
